<mxfile host="app.diagrams.net" modified="2024-03-07T23:10:43.705Z" agent="Mozilla/5.0 (Windows NT 10.0; Win64; x64) AppleWebKit/537.36 (KHTML, like Gecko) Chrome/122.0.0.0 Safari/537.36" etag="r_Sr-lzsqvtfbkEb72lT" version="24.0.2" type="google">
  <diagram name="Página-1" id="NBkt7IvmojByfJSfpqG8">
    <mxGraphModel grid="1" page="1" gridSize="10" guides="1" tooltips="1" connect="1" arrows="1" fold="1" pageScale="1" pageWidth="827" pageHeight="1169" math="0" shadow="0">
      <root>
        <mxCell id="0" />
        <mxCell id="1" parent="0" />
        <mxCell id="d0QmDexkah37YJwRi1FS-8" style="edgeStyle=orthogonalEdgeStyle;rounded=0;orthogonalLoop=1;jettySize=auto;html=1;entryX=0.5;entryY=0;entryDx=0;entryDy=0;dashed=1;" edge="1" parent="1" source="d0QmDexkah37YJwRi1FS-9" target="d0QmDexkah37YJwRi1FS-14">
          <mxGeometry relative="1" as="geometry" />
        </mxCell>
        <mxCell id="d0QmDexkah37YJwRi1FS-9" value="&lt;br&gt;&lt;br&gt;&lt;br&gt;&lt;br&gt;Customer" style="shape=actor;whiteSpace=wrap;html=1;" vertex="1" parent="1">
          <mxGeometry x="175.38" y="150" width="114.25" height="100" as="geometry" />
        </mxCell>
        <mxCell id="d0QmDexkah37YJwRi1FS-10" style="edgeStyle=orthogonalEdgeStyle;rounded=0;orthogonalLoop=1;jettySize=auto;html=1;dashed=1;" edge="1" parent="1" source="d0QmDexkah37YJwRi1FS-14" target="d0QmDexkah37YJwRi1FS-16">
          <mxGeometry relative="1" as="geometry">
            <Array as="points">
              <mxPoint x="467" y="400" />
              <mxPoint x="467" y="305" />
            </Array>
          </mxGeometry>
        </mxCell>
        <mxCell id="d0QmDexkah37YJwRi1FS-11" value="Solicita envio de Email" style="edgeLabel;html=1;align=center;verticalAlign=middle;resizable=0;points=[];" connectable="0" vertex="1" parent="d0QmDexkah37YJwRi1FS-10">
          <mxGeometry x="-0.1381" y="-2" relative="1" as="geometry">
            <mxPoint y="-2" as="offset" />
          </mxGeometry>
        </mxCell>
        <mxCell id="d0QmDexkah37YJwRi1FS-12" style="edgeStyle=orthogonalEdgeStyle;rounded=0;orthogonalLoop=1;jettySize=auto;html=1;dashed=1;" edge="1" parent="1" source="d0QmDexkah37YJwRi1FS-14">
          <mxGeometry relative="1" as="geometry">
            <Array as="points">
              <mxPoint x="467" y="420" />
              <mxPoint x="467" y="495" />
            </Array>
            <mxPoint x="537" y="495" as="targetPoint" />
          </mxGeometry>
        </mxCell>
        <mxCell id="d0QmDexkah37YJwRi1FS-13" value="Realiza a compra&lt;br&gt;e&lt;br&gt;retorna o status" style="edgeLabel;html=1;align=center;verticalAlign=middle;resizable=0;points=[];" connectable="0" vertex="1" parent="d0QmDexkah37YJwRi1FS-12">
          <mxGeometry x="0.0785" y="1" relative="1" as="geometry">
            <mxPoint as="offset" />
          </mxGeometry>
        </mxCell>
        <mxCell id="d0QmDexkah37YJwRi1FS-14" value="&lt;span style=&quot;font-size: 17px;&quot;&gt;&lt;b&gt;Shoes Click&lt;br&gt;&lt;/b&gt;&lt;/span&gt;&lt;br&gt;Site que permite que o usuário faça compras, adicione aos favoritos e gerencie sua conta de usuário e o status do pedido." style="rounded=0;whiteSpace=wrap;html=1;fillColor=#dae8fc;strokeColor=#6c8ebf;" vertex="1" parent="1">
          <mxGeometry x="87" y="370" width="291" height="100" as="geometry" />
        </mxCell>
        <mxCell id="d0QmDexkah37YJwRi1FS-15" value="Usuário que fará compras no site" style="text;html=1;align=center;verticalAlign=middle;whiteSpace=wrap;rounded=0;fillColor=#f5f5f5;fontColor=#333333;strokeColor=#666666;" vertex="1" parent="1">
          <mxGeometry x="122.5" y="280" width="220" height="30" as="geometry" />
        </mxCell>
        <mxCell id="d0QmDexkah37YJwRi1FS-16" value="&lt;font size=&quot;1&quot; style=&quot;&quot;&gt;&lt;b style=&quot;font-size: 14px;&quot;&gt;Email Notification&lt;/b&gt;&lt;/font&gt;" style="rounded=0;whiteSpace=wrap;html=1;fillColor=#f5f5f5;fontColor=#333333;strokeColor=#666666;" vertex="1" parent="1">
          <mxGeometry x="537" y="260" width="200" height="90" as="geometry" />
        </mxCell>
        <mxCell id="d0QmDexkah37YJwRi1FS-37" value="&lt;font size=&quot;1&quot; style=&quot;&quot;&gt;&lt;b style=&quot;font-size: 14px;&quot;&gt;Payment Notification&lt;/b&gt;&lt;/font&gt;" style="rounded=0;whiteSpace=wrap;html=1;fillColor=#f5f5f5;fontColor=#333333;strokeColor=#666666;" vertex="1" parent="1">
          <mxGeometry x="536" y="450" width="200" height="90" as="geometry" />
        </mxCell>
      </root>
    </mxGraphModel>
  </diagram>
</mxfile>
